<svg width="106" height="24" viewBox="0 0 106 24" fill="none" xmlns="http://www.w3.org/2000/svg">
<path d="M16.2886 3.86922L13.3393 6.06088C12.1849 4.16685 10.5254 3.21984 8.36077 3.21984C8.09019 3.21984 7.78354 3.2469 7.44081 3.30101C7.09808 3.35513 6.71026 3.46336 6.27734 3.6257C5.84442 3.77001 5.48365 4.01353 5.19504 4.35626C4.92446 4.68095 4.78918 5.07779 4.78918 5.54679C4.78918 5.8354 4.85231 6.09696 4.97858 6.33145C5.10485 6.54791 5.24915 6.7283 5.4115 6.8726C5.59188 6.99887 5.85344 7.12514 6.19617 7.25141C6.5389 7.37768 6.84555 7.47689 7.11612 7.54904C7.3867 7.6212 7.77452 7.71139 8.27959 7.81962L10.2818 8.25254C11.1477 8.43292 11.8963 8.64036 12.5276 8.87486C13.177 9.10936 13.8264 9.44307 14.4758 9.87599C15.1251 10.2909 15.6212 10.841 15.9639 11.5265C16.3067 12.1939 16.478 12.9876 16.478 13.9076C16.478 14.8095 16.2976 15.6302 15.9369 16.3698C15.5941 17.0913 15.1432 17.6776 14.584 18.1285C14.0428 18.5795 13.4025 18.9583 12.6629 19.2649C11.9414 19.5716 11.2198 19.779 10.4983 19.8873C9.79481 20.0135 9.0823 20.0767 8.36077 20.0767C6.61105 20.0767 4.97858 19.743 3.46336 19.0755C1.94814 18.4081 0.793687 17.3799 0 15.991L3.00338 13.9076C4.2841 15.8196 6.2593 16.7756 8.92897 16.7756C10.0113 16.7756 10.8952 16.5592 11.5806 16.1263C12.2661 15.6753 12.6088 15.053 12.6088 14.2593C12.6088 13.5378 12.3382 13.0237 11.7971 12.717C11.274 12.4104 10.3179 12.1037 8.92897 11.7971L6.4938 11.2559C5.91657 11.1297 5.4115 11.0034 4.97858 10.8771C4.54566 10.7328 4.05862 10.5254 3.51747 10.2548C2.99436 9.96618 2.56144 9.64149 2.21871 9.28072C1.89402 8.91995 1.61443 8.45998 1.37993 7.90079C1.14543 7.32356 1.02818 6.67418 1.02818 5.95265C1.02818 4.20293 1.6956 2.7779 3.03044 1.67756C4.38331 0.559188 6.23224 0 8.57723 0C11.8241 0 14.3946 1.28974 16.2886 3.86922Z" fill="#00AA87"/>
<path d="M29.7901 19.5896H26.5432V18.2097C25.3166 19.3461 23.8555 19.9143 22.1599 19.9143C20.356 19.9143 19.0573 19.3191 18.2636 18.1285C17.7405 17.3529 17.4789 16.1623 17.4789 14.5569V6.06088H20.7529V13.8534C20.7529 15.8557 21.6368 16.8568 23.4045 16.8568C24.09 16.8568 24.6492 16.6945 25.0821 16.3698C25.533 16.0451 25.8487 15.7024 26.0291 15.3416C26.3718 14.6742 26.5432 13.5919 26.5432 12.0947V6.06088H29.7901V19.5896Z" fill="#00AA87"/>
<path d="M31.6843 6.06088H34.9312V7.27847C35.9594 6.19617 37.195 5.65502 38.6381 5.65502C40.4059 5.65502 41.8489 6.31342 42.9673 7.63021C44.1759 9.07328 44.7802 10.841 44.7802 12.9335C44.7802 14.7193 44.3292 16.2435 43.4273 17.5062C42.2548 19.1657 40.6494 19.9955 38.611 19.9955C37.2401 19.9955 36.0135 19.4904 34.9312 18.4803V24H31.6843V6.06088ZM41.4521 12.7711C41.4521 11.4724 41.1184 10.4803 40.451 9.79481C39.7835 9.10936 39.0079 8.76663 38.124 8.76663C37.0597 8.76663 36.248 9.16347 35.6888 9.95716C35.1477 10.7508 34.8771 11.6798 34.8771 12.7441C34.8771 13.9526 35.1657 14.9538 35.743 15.7475C36.3382 16.5231 37.159 16.9109 38.2052 16.9109C38.5659 16.9109 38.9177 16.8478 39.2604 16.7215C39.6032 16.5953 39.9459 16.3968 40.2886 16.1263C40.6494 15.8377 40.929 15.4047 41.1274 14.8275C41.3438 14.2503 41.4521 13.5648 41.4521 12.7711Z" fill="#00AA87"/>
<path d="M59.0126 13.4746H49.0013C49.0194 13.655 49.0555 13.8625 49.1096 14.097C49.1637 14.3315 49.2809 14.6201 49.4613 14.9628C49.6417 15.2875 49.8582 15.5851 50.1107 15.8557C50.3813 16.1263 50.7511 16.3608 51.2201 16.5592C51.689 16.7396 52.2212 16.8298 52.8164 16.8298C54.4399 16.8298 55.6214 16.2074 56.361 14.9628L59.1208 16.5592C57.4252 18.8501 55.2246 19.9955 52.5188 19.9955C50.4624 19.9955 48.7849 19.3461 47.4861 18.0473C46.2054 16.7306 45.565 14.9628 45.565 12.7441C45.565 10.4532 46.2234 8.70349 47.5402 7.49493C48.857 6.26832 50.4624 5.65502 52.3565 5.65502C53.5831 5.65502 54.6473 5.88951 55.5493 6.35851C56.4692 6.80947 57.1637 7.43179 57.6327 8.22548C58.1197 9.00113 58.4715 9.82187 58.6879 10.6877C58.9044 11.5536 59.0126 12.4825 59.0126 13.4746ZM49.1096 11.0936H55.441C55.423 10.8591 55.3689 10.6156 55.2787 10.363C55.2065 10.0924 55.0712 9.78579 54.8728 9.44307C54.6744 9.10034 54.3587 8.82074 53.9258 8.60428C53.5109 8.36979 53.0058 8.25254 52.4106 8.25254C51.7973 8.25254 51.2561 8.36979 50.7871 8.60428C50.3362 8.82074 49.9934 9.11838 49.7589 9.49718C49.5425 9.87599 49.3892 10.1826 49.299 10.4171C49.2268 10.6336 49.1637 10.8591 49.1096 11.0936Z" fill="#00AA87"/>
<path d="M59.9467 6.06088H63.0854V7.98196C63.7889 6.50282 65.1327 5.76325 67.117 5.76325H67.3875V9.09132C65.2049 9.09132 63.852 9.92108 63.3289 11.5806C63.1666 12.0857 63.0854 12.8253 63.0854 13.7993V19.5896H59.9467V6.06088Z" fill="#00AA87"/>
<path d="M71.3519 0.487035H74.8694V14.9899C74.8694 15.3506 74.8333 15.7114 74.7611 16.0722C74.707 16.4329 74.5537 16.8658 74.3012 17.3709C74.0667 17.8579 73.742 18.2909 73.3271 18.6697C72.9122 19.0304 72.3169 19.3371 71.5413 19.5896C70.7656 19.8602 69.8547 19.9955 68.8085 19.9955C68.0328 19.9955 67.2933 19.9143 66.5898 19.752V16.2345C67.4015 16.4149 68.0328 16.5051 68.4838 16.5051C69.1332 16.5051 69.6653 16.4149 70.0802 16.2345C70.4951 16.0361 70.7837 15.7565 70.946 15.3957C71.1264 15.0169 71.2346 14.6832 71.2707 14.3946C71.3248 14.0879 71.3519 13.7001 71.3519 13.2311V0.487035Z" fill="#00AA87"/>
<path d="M92.8533 0.487035H96.1002V7.19729C97.1284 6.16911 98.4181 5.65502 99.9694 5.65502C101.593 5.65502 102.991 6.31342 104.163 7.63021C105.336 8.94701 105.922 10.6516 105.922 12.7441C105.922 14.9989 105.291 16.7756 104.028 18.0744C102.783 19.3551 101.367 19.9955 99.78 19.9955C98.355 19.9955 97.1194 19.3912 96.0731 18.1826V19.5896H92.8533V0.487035ZM96.0461 12.5006C96.0461 13.9256 96.3437 15.0169 96.939 15.7745C97.5342 16.5321 98.3369 16.9109 99.3471 16.9109C100.267 16.9109 101.034 16.5231 101.647 15.7475C102.278 14.9718 102.594 13.8895 102.594 12.5006C102.594 11.4904 102.296 10.5885 101.701 9.79481C101.124 9.00113 100.294 8.60428 99.2118 8.60428C98.2558 8.60428 97.4891 8.97407 96.9119 9.71364C96.3347 10.4532 96.0461 11.3822 96.0461 12.5006Z" fill="#00AA87"/>
<path d="M87.5475 5.77595C85.9855 5.89256 84.5779 7.13239 83.8077 7.80927C83.0388 7.13909 81.6311 5.89256 80.0692 5.77595C77.3277 5.57222 75.7752 7.35757 75.7752 10.183C75.7752 12.4429 77.7142 14.3757 79.7901 16.4975C81.6204 18.374 83.8036 20.5333 83.8036 20.5333C83.8036 20.5333 85.9869 18.3686 87.8185 16.4975C89.8931 14.3757 91.8321 12.4429 91.8321 10.183C91.8361 7.35489 90.2889 5.56954 87.5475 5.77595Z" fill="#00AA87"/>
</svg>
